<svg xmlns="http://www.w3.org/2000/svg" width="512" height="512" viewBox="0 0 512 512"><path d="M48.299 509.97c-5.831-1.959-10.614-5.945-13.35-11.125-2.359-4.468-2.708-7.99-2.494-25.17l.204-16.346 2.006-1.925 2.007-1.925 8.891-.2 8.891-.2.03-106.335.03-106.335-22.427-.009c-24.147-.009-25.559-.165-27.55-3.084-1.46-2.14-1.84-4.944-.949-7.006.798-1.847 2.369-3.096 45.415-36.093 9.287-7.12 19.65-15.081 23.027-17.692 9.773-7.553 76.351-58.616 109.917-84.3 16.887-12.923 34.672-26.564 39.524-30.315 29.566-22.86 31.063-23.812 35.276-22.46 1.076.344 9.137 6.078 17.914 12.741 38.74 29.41 49.423 37.7 49.689 38.557.354 1.143 2.786 17.948 2.786 19.253 0 .759-.48.61-2.302-.712-2.913-2.112-57.526-43.78-64.853-49.479l-5.469-4.254-14.793 11.225c-8.136 6.173-18.8 14.34-23.697 18.148s-22.306 17.158-38.686 29.667a74784 74784 0 0 0-92.109 70.429c-21.953 16.817-37.104 28.344-47.475 36.121l-6.026 4.52 16.225.005c15.715.006 16.279.045 17.917 1.284 3.593 2.714 3.386-4.415 3.352 115.703l-.032 110.535 185.406.057 185.406.057.032-110.83c.027-94.451.16-111.125.905-112.834 1.58-3.63 2.722-3.847 20.432-3.876 15.096-.025 15.767-.073 14.306-1.027-.843-.55-13.065-9.853-27.16-20.673-21.024-16.137-25.628-19.927-25.628-21.094 0-1.816 1.114-2.217 9.456-3.404l6.596-.939 18.83 14.278c26.3 19.943 45.639 34.895 46.937 36.29 2.758 2.964 1.36 8.327-2.69 10.316-1.884.925-4.39 1.029-24.659 1.023l-22.562-.006-.03 106.39-.03 106.39 8.318.002c14.293.007 13.912-.642 13.656 23.186l-.192 17.813-2.015 3.924c-2.37 4.615-6.798 8.748-11.802 11.015l-3.377 1.53-204.131.058c-184.303.053-204.4-.032-206.893-.87Zm406.33-13.667c1.468-.32 3.324-1.04 4.124-1.599 2.935-2.048 3.338-3.903 3.341-15.397.002-5.867-.204-10.67-.457-10.672-2.193-.022-411.585-.173-412.866-.152l-1.688.029-.003 10.462c-.002 8.796.169 10.784 1.07 12.484 1.458 2.745 3.896 4.334 7.374 4.804 4.878.66 396.091.7 399.104.041zm-314.995-67.895c-6.223-1.41-12.239-6.211-14.905-11.898-1.455-3.101-1.781-4.749-2.092-10.56-.267-4.997-.63-7.178-1.329-7.957-1.478-1.65-1.808-2.96-2.35-9.325-.277-3.242-.992-7.059-1.59-8.482s-3.274-5.387-5.948-8.808c-5.712-7.313-8.442-12.276-10.661-19.384-1.406-4.503-1.62-6.261-1.64-13.433-.026-9.692.869-13.95 4.487-21.357 5.338-10.928 13.401-18.957 24.258-24.153 7.603-3.64 13.622-4.903 23.33-4.897 14.36.009 27.04 5.44 37.4 16.022 15.445 15.77 18.668 37.451 8.454 56.851-1.035 1.966-4.07 6.37-6.743 9.79-6.084 7.778-6.94 9.785-7.507 17.6-.427 5.882-1.004 7.951-2.789 9.995-.47.54-.885 3.412-1.063 7.367-.42 9.328-2.926 14.535-9.081 18.87-4.965 3.497-9.038 4.417-19.226 4.345-4.781-.034-9.734-.298-11.005-.586m20.24-14.651c3.19-1.867 4.068-3.718 4.37-9.224l.272-4.947-13.583-.007-13.583-.007-.002 4.088c-.002 4.546.655 6.73 2.647 8.797 2.028 2.105 3.196 2.364 10.856 2.405 5.96.031 7.366-.142 9.022-1.111zm8.333-32.423c1.316-6.401 3.084-9.81 9.026-17.404 10.056-12.85 12.62-20.928 10.18-32.076-2.702-12.353-13.488-23.812-26.17-27.804-6.236-1.964-15.466-2.004-21.825-.095-11.387 3.418-21.31 13.52-24.472 24.912-1.143 4.12-1.163 14.627-.035 18.698 1.45 5.237 4.262 10.21 8.909 15.76 5.297 6.324 8.254 11.874 9.647 18.108l1.026 4.587 16.374.007 16.375.007zm118.321 38.707c-7.177-1.878-13.907-7.312-17.058-13.774l-1.662-3.407-.15-59.233c-.149-58.039-.127-59.312 1.093-63.164 1.51-4.768 4.946-9.146 9.398-11.973 6.303-4.003 4.208-3.891 69.308-3.692l58.589.18 4.684 2.225c7.114 3.379 11.673 8.973 13.321 16.347.538 2.404.671 18.173.517 61.005l-.208 57.763-1.911 3.83c-2.382 4.776-5.877 8.572-10.15 11.024-6.644 3.814-4.78 3.712-66.81 3.649-42.325-.043-56.88-.235-58.961-.78m116.373-14.756c3.198-1.282 5.665-4.213 6.44-7.652.466-2.07.617-19.472.494-56.913-.16-48.862-.272-54.099-1.192-55.7-1.316-2.292-3.455-4.184-5.622-4.973-1.178-.43-19.52-.635-57.617-.647-62.646-.019-58.634-.298-61.808 4.303l-1.634 2.37-.182 55.046c-.12 36.191.034 55.815.446 57.288.858 3.062 2.811 5.282 5.793 6.583 2.377 1.037 5.294 1.094 57.623 1.122 46.88.025 55.44-.098 57.259-.827zm-87.318-13.84c-1.075-.65-2.216-1.66-2.535-2.244-.635-1.165-1.29-7.863-1.318-13.476l-.018-3.57-3.56-2.214c-4.267-2.653-6.618-5.35-8.506-9.761-3.751-8.76-.027-19.26 8.563-24.142l3.514-1.998.006-17.618c.006-19.446.234-20.876 3.61-22.551 3.791-1.88 9.222-.359 10.531 2.95.34.861.596 9.194.593 19.368l-.006 17.856 3.513 2c6.435 3.662 9.99 9.86 9.988 17.41-.003 6.87-3.998 13.587-10.137 17.038l-2.644 1.487-.214 8.218-.214 8.218-1.921 1.842c-2.518 2.415-6.386 2.912-9.245 1.186zm7.73-33.99c4.558-3.679 1.836-10.867-4.117-10.87-3.01 0-6.25 3.206-6.25 6.188 0 1.694.465 2.628 2.086 4.185 2.65 2.546 5.53 2.719 8.281.498m46.974 34.55c-.703-.273-2.015-1.338-2.916-2.366l-1.637-1.87.006-18.698.006-18.697-2.274-.79c-1.25-.435-3.694-2.155-5.43-3.823-9.324-8.957-7.223-24.434 4.2-30.926l3.514-1.997.003-7.247c.002-3.985.272-7.927.602-8.758 1.31-3.308 6.742-4.826 10.531-2.943 2.853 1.417 3.604 3.912 3.602 11.97l-.003 7.036 2.644 1.489c3.464 1.95 7.568 6.276 9.224 9.722 2.054 4.277 1.882 11.672-.376 16.091-1.866 3.654-6.823 8.494-9.674 9.447l-1.83.612-.012 18.361c-.016 20.09-.05 20.303-3.627 22.616-2.14 1.383-4.317 1.64-6.55.771zm5.46-54.883c1.714-.748 3.509-3.422 3.509-5.226 0-3.004-3.47-6.512-6.444-6.513-3.028 0-6.475 3.54-6.427 6.6.068 4.275 5.065 7.018 9.363 5.14m-272.892-55.291c-7.605-7.197-9.058-9.065-9.057-11.644 0-4.949 6.223-8.326 10.929-5.932 1.97 1.002 13.809 12.452 14.786 14.3.982 1.858.835 5.605-.28 7.132-1.331 1.825-4.088 3.073-6.782 3.072-2.08 0-2.904-.595-9.596-6.928m81.301 5.757c-1.117-.655-2.437-2.123-2.932-3.263-1.628-3.742-.544-5.652 7.575-13.346 4.208-3.988 7.94-7.027 8.92-7.262 2.883-.694 5.735.193 7.768 2.417 2.1 2.299 2.428 4.64 1.008 7.211-1.045 1.894-13.584 13.848-15.508 14.785-2.024.986-4.567.784-6.83-.542m-38.645-13.805-2.293-2.02.004-10.699.004-10.7 2.294-2.015c1.806-1.587 2.812-2.017 4.73-2.016 3.292 0 5.347 1 6.846 3.33 1.156 1.798 1.237 2.724 1.055 12.03l-.197 10.08-2.293 2.016c-1.905 1.674-2.765 2.016-5.075 2.015s-3.168-.342-5.073-2.02zm104.477-26.774c-3-1.31-4.831-3.6-5.782-7.23-2.252-8.596 6.619-15.448 15.17-11.718 8.068 3.52 8.09 15.083.035 18.823-3.295 1.53-6.116 1.568-9.423.125m-24.535-29.093c-2.72-2.395-3.337-5.597-1.671-8.682 2.246-4.159 11.817-10.186 19.249-12.12 5.44-1.418 14.309-1.7 19.618-.626 9.328 1.888 21.888 9.564 23.044 14.083.722 2.822-.209 5.515-2.603 7.532-1.967 1.657-2.548 1.843-4.938 1.584-1.827-.198-3.444-.888-4.965-2.116-5.895-4.763-12.555-7.174-19.727-7.142-6.183.028-11.643 2.22-18.338 7.364-3.616 2.777-6.61 2.816-9.669.123m-21.13-21.302c-2.904-.912-4.908-3.923-4.907-7.377 0-2.607.182-2.878 4.762-7.132 12.798-11.886 28.19-17.94 47.43-18.655 17.65-.656 32.907 3.791 47.435 13.828 6.329 4.372 10.681 8.836 11.198 11.485.75 3.847-2.87 8.107-6.89 8.106-2.67-.001-4.088-.723-7.66-3.902-6.283-5.59-16.535-10.812-26.123-13.305-7.297-1.897-22.347-1.894-29.937.006-9.79 2.451-18.946 7.2-26.278 13.63-3.985 3.495-6.047 4.252-9.03 3.316zm-25.552-23.867c-1.217-.736-2.315-2.147-2.99-3.844-1.05-2.644-1.045-2.724.391-5.502 2.714-5.25 17.17-15.848 29.95-21.959 7.712-3.687 18.249-7.128 27.383-8.941 5.845-1.16 8.613-1.342 20.567-1.35 15.582-.01 21.92.87 34.263 4.755 15.332 4.827 33.444 15.384 42.392 24.71 4.093 4.265 4.183 8.224.263 11.527-1.946 1.639-2.564 1.842-4.848 1.594-2.177-.236-3.385-.952-7.174-4.249-13.472-11.721-31.186-20.131-48.631-23.088-8.367-1.418-23.632-1.418-31.853 0-17.956 3.099-35.183 11.193-47.362 22.254-4.54 4.124-5.57 4.782-7.827 5.002-1.872.182-3.137-.072-4.524-.91m231.559-6.251c-18.393-2.75-33.5-10.164-46.675-22.907-7.484-7.238-11.93-13.06-16.038-21.004-5.933-11.471-8.814-23.644-8.81-37.224.004-9.134 1.252-16.437 4.347-25.414 14.076-40.82 56.86-63.403 101.16-53.393 19.831 4.48 38.53 17.124 50.397 34.075 5.898 8.427 11.196 20.806 13.34 31.174 1.47 7.104 1.468 22.108-.003 29.196-5.609 27.03-24.754 49.765-50.775 60.292-13.584 5.495-31.622 7.495-46.944 5.205zm50.756-26.237c4.886-.994 9.84-3.645 14.138-7.565l3.853-3.513-39.904-.033-39.903-.033 40.755-39.108 40.756-39.109-.76-2.286c-3.238-9.728-12.714-18.263-22.522-20.286-1.908-.393-15.146-.557-37.033-.456l-34.063.156-4.036 1.895c-3.648 1.712-10.394 7.438-10.395 8.822 0 .263 16.162.412 35.915.332s35.915.057 35.915.304-18.116 17.833-40.257 39.08l-40.256 38.629 1.52 4.022c3.535 9.36 11.232 16.424 20.641 18.945 3.737 1 70.831 1.182 75.636.204" style="fill:#000;stroke-width:2.66557"/></svg>